<?xml version="1.0" standalone="no"?>
<!DOCTYPE svg PUBLIC "-//W3C//DTD SVG 20010904//EN"
 "http://www.w3.org/TR/2001/REC-SVG-20010904/DTD/svg10.dtd">
<svg version="1.0" xmlns="http://www.w3.org/2000/svg"
 width="1786.000000pt" height="1786.000000pt" viewBox="0 0 1786.000000 1786.000000"
 preserveAspectRatio="xMidYMid meet">
<metadata>
Created by potrace 1.14, written by Peter Selinger 2001-2017
</metadata>
<g transform="translate(0.000000,1786.000000) scale(0.100000,-0.100000)"
fill="#000000" stroke="none">
<path d="M5865 12850 c-396 -62 -724 -233 -905 -475 -156 -207 -202 -476 -125
-725 34 -109 124 -252 213 -337 220 -213 561 -347 967 -380 154 -12 473 -6
564 12 13 2 47 7 75 10 28 2 61 7 72 9 30 6 96 18 114 20 58 8 150 31 150 37
0 5 -15 6 -32 3 -76 -11 -318 -4 -398 11 -14 3 -41 8 -60 11 -151 24 -355 100
-503 188 -480 283 -740 785 -607 1172 73 211 258 373 498 434 23 6 42 13 42
15 0 3 -3 4 -7 4 -5 -1 -30 -5 -58 -9z"/>
<path d="M6350 12826 c111 -38 203 -87 315 -164 407 -282 907 -841 1600 -1792
109 -150 1955 -2612 1964 -2620 3 -3 17 -21 31 -40 13 -19 28 -39 32 -45 5 -5
28 -37 53 -70 24 -33 48 -64 53 -70 4 -5 21 -28 37 -50 17 -22 34 -44 38 -50
4 -5 41 -55 82 -110 41 -55 78 -104 83 -110 15 -18 487 -646 502 -668 8 -12
68 -92 132 -177 64 -85 132 -175 150 -200 18 -25 35 -47 38 -50 3 -3 27 -34
53 -70 27 -36 60 -80 75 -99 15 -18 31 -41 36 -50 5 -9 12 -18 15 -21 4 -3 38
-48 76 -100 39 -52 78 -104 87 -114 10 -11 28 -35 41 -53 12 -18 24 -33 27
-33 3 0 5 235 5 523 l-1 524 -54 74 c-30 40 -110 148 -178 239 -67 91 -129
174 -137 185 -8 11 -111 151 -229 310 -318 428 -442 595 -871 1175 -214 289
-399 539 -412 555 -31 40 -11 12 -268 360 -592 801 -835 1111 -1119 1430 -204
228 -425 450 -630 630 -139 122 -330 266 -485 364 -75 48 -269 161 -276 161
-2 0 -41 18 -87 39 -170 80 -370 145 -550 180 -98 19 -146 25 -268 36 l-55 4
95 -33z"/>
<path d="M12717 12484 c-1 -1 -42 -4 -92 -8 -123 -9 -172 -15 -300 -37 -60
-11 -123 -22 -140 -24 -16 -3 -43 -8 -60 -12 -16 -4 -32 -7 -35 -8 -3 -1 -32
-7 -65 -14 -73 -15 -362 -87 -425 -105 -25 -8 -88 -26 -140 -41 -165 -47 -290
-85 -470 -141 -227 -72 -599 -193 -625 -204 -48 -21 -1063 -360 -1155 -386
-81 -23 -70 -29 16 -9 38 9 80 19 94 21 14 3 53 11 86 19 34 8 73 17 85 20
164 36 930 189 1009 200 14 2 61 10 105 19 44 8 96 18 115 21 19 3 44 7 55 9
11 2 38 7 60 10 22 3 51 8 65 11 14 3 41 7 60 10 19 3 44 6 55 9 21 4 133 21
195 31 19 2 44 6 55 9 18 3 67 10 150 21 17 2 86 11 155 20 171 23 167 22 240
29 36 4 76 9 90 11 14 3 59 7 100 10 41 3 86 8 100 10 125 19 644 27 765 13
50 -6 169 -26 260 -42 51 -10 251 -69 263 -78 6 -6 12 -8 12 -5 0 14 258 -109
340 -162 242 -157 398 -356 434 -555 11 -61 17 -36 15 64 -4 228 -41 389 -132
580 -17 36 -35 67 -39 68 -4 2 -8 8 -8 13 0 22 -93 141 -172 220 -245 245
-587 371 -1036 382 -46 1 -84 2 -85 1z"/>
<path d="M9118 11473 c7 -3 16 -2 19 1 4 3 -2 6 -13 5 -11 0 -14 -3 -6 -6z"/>
<path d="M1190 9557 c0 -242 2 -438 5 -436 2 3 7 23 10 45 34 231 187 474 400
635 120 91 295 166 430 185 22 4 41 8 43 9 2 2 -197 3 -442 2 l-446 0 0 -440z"/>
<path d="M3161 9966 c-10 -17 -44 -80 -76 -141 -32 -60 -65 -118 -73 -127 -8
-10 -12 -18 -9 -18 3 0 -10 -28 -30 -62 -19 -35 -58 -106 -85 -158 -28 -52
-58 -108 -68 -125 -10 -16 -145 -266 -300 -555 -156 -289 -294 -545 -308 -570
-13 -25 -41 -76 -62 -115 -21 -38 -80 -149 -132 -245 -52 -96 -98 -182 -102
-190 -4 -8 -12 -24 -19 -35 -15 -24 -123 -224 -227 -420 -23 -44 -50 -93 -60
-110 -9 -16 -39 -70 -65 -120 -27 -49 -105 -196 -175 -325 -70 -129 -149 -275
-175 -325 -26 -49 -56 -103 -65 -120 -33 -54 -70 -128 -70 -137 0 -4 185 -7
411 -6 l411 3 48 90 c27 50 63 117 80 150 18 33 45 83 60 110 15 28 149 275
297 550 149 275 284 525 300 555 16 30 52 96 78 145 27 50 89 164 138 255 49
91 112 208 140 260 27 52 53 100 57 105 7 10 42 76 145 270 26 50 51 95 55
100 4 6 35 64 70 130 35 66 66 125 70 130 4 6 28 49 54 98 25 48 67 126 92
175 26 48 50 92 54 97 4 6 30 53 57 105 58 110 118 220 146 270 11 19 43 80
72 135 29 55 65 120 79 145 14 25 26 48 26 51 0 3 -185 6 -410 6 l-410 0 -19
-31z"/>
<path d="M4913 9984 c182 -47 318 -199 361 -404 12 -60 15 -3001 2 -3092 -25
-192 -195 -383 -370 -418 -23 -4 218 -8 562 -9 l602 -1 0 1968 0 1969 -602 0
c-500 0 -595 -3 -555 -13z"/>
<path d="M7012 9995 c2 -2 19 -5 38 -8 207 -30 412 -138 571 -300 67 -69 159
-200 190 -274 11 -26 27 -62 35 -79 15 -34 40 -129 48 -182 2 -19 6 -35 8 -37
2 -2 3 195 3 438 l0 442 -448 1 c-246 1 -446 0 -445 -1z"/>
<path d="M11523 9980 c188 -58 335 -249 349 -453 1 -28 6 -37 20 -37 10 0 19
6 19 13 10 111 53 230 109 301 43 56 122 121 184 151 38 19 73 32 78 29 4 -3
8 -1 8 4 0 5 -168 9 -411 9 -404 0 -410 0 -356 -17z"/>
<path d="M12308 9993 c7 -3 16 -2 19 1 4 3 -2 6 -13 5 -11 0 -14 -3 -6 -6z"/>
<path d="M12854 9993 c2 -2 16 -6 32 -9 100 -16 243 -132 302 -242 71 -133 66
-2 67 -1687 1 -1190 -2 -1535 -11 -1588 -35 -184 -181 -346 -354 -393 -37 -10
62 -13 551 -13 469 -1 598 2 601 12 2 6 3 892 3 1967 l-1 1955 -597 1 c-329 1
-596 -1 -593 -3z"/>
<path d="M15025 9989 c87 -15 174 -43 264 -85 303 -142 512 -412 575 -743 11
-57 13 -2 12 384 l-1 450 -445 1 c-245 0 -427 -3 -405 -7z"/>
<path d="M7405 8628 c-10 -61 -65 -174 -113 -234 -22 -29 -67 -72 -99 -97
-130 -100 -249 -137 -440 -137 -116 0 -123 -1 -123 -20 0 -18 7 -20 68 -20
138 -1 219 -9 282 -30 124 -42 203 -92 287 -185 67 -72 108 -147 132 -238 16
-62 16 -45 17 470 0 293 -1 533 -2 533 -1 0 -5 -19 -9 -42z"/>
<path d="M15361 8573 c-44 -145 -160 -273 -314 -347 -78 -38 -113 -49 -192
-62 -5 -1 -65 -2 -132 -3 -116 -1 -123 -2 -123 -21 0 -19 7 -20 98 -21 135 -1
187 -7 257 -30 208 -68 372 -237 420 -431 11 -46 13 19 14 465 0 284 -1 517
-3 517 -2 0 -13 -30 -25 -67z"/>
<path d="M4030 6921 c0 -49 -49 -201 -92 -290 -105 -213 -283 -385 -502 -487
-65 -30 -105 -43 -185 -60 -13 -3 -40 -9 -60 -13 -22 -6 138 -9 405 -10 l442
-1 0 445 c1 245 -1 445 -4 445 -2 0 -4 -13 -4 -29z"/>
<path d="M8091 6934 c0 -11 3 -14 6 -6 3 7 2 16 -1 19 -3 4 -6 -2 -5 -13z"/>
<path d="M16060 6927 c0 -44 -43 -191 -76 -266 -102 -223 -294 -414 -520 -517
-69 -31 -190 -67 -259 -77 -16 -2 171 -5 418 -6 l447 -1 0 445 c0 245 -2 445
-5 445 -3 0 -5 -10 -5 -23z"/>
<path d="M8083 6898 c-4 -84 -81 -277 -153 -384 -99 -146 -249 -278 -405 -356
-61 -31 -158 -63 -245 -82 -60 -13 -29 -14 375 -15 l441 -1 0 425 c0 234 -3
425 -6 425 -4 0 -7 -6 -7 -12z"/>
<path d="M9239 6567 c0 -1 -2 -11 -3 -22 -11 -88 -23 -131 -56 -201 -63 -130
-166 -223 -298 -265 -57 -18 -57 -18 378 -17 255 0 418 4 394 8 -105 21 -239
121 -299 225 -47 79 -74 165 -79 249 0 11 -9 20 -18 22 -10 1 -18 2 -19 1z"/>
</g>
</svg>
