<svg version="1.0" xmlns="http://www.w3.org/2000/svg" width="2381.333" height="2381.333" viewBox="0 0 1786 1786"><path d="M586.5 501c-39.6 6.2-72.4 23.3-90.5 47.5-15.6 20.7-20.2 47.6-12.5 72.5 3.4 10.9 12.4 25.2 21.3 33.7 22 21.3 56.1 34.7 96.7 38 15.4 1.2 47.3.6 56.4-1.2 1.3-.2 4.7-.7 7.5-1 2.8-.2 6.1-.7 7.2-.9 3-.6 9.6-1.8 11.4-2 5.8-.8 15-3.1 15-3.7 0-.5-1.5-.6-3.2-.3-7.6 1.1-31.8.4-39.8-1.1-1.4-.3-4.1-.8-6-1.1-15.1-2.4-35.5-10-50.3-18.8-48-28.3-74-78.5-60.7-117.2 7.3-21.1 25.8-37.3 49.8-43.4 2.3-.6 4.2-1.3 4.2-1.5 0-.3-.3-.4-.7-.4-.5.1-3 .5-5.8.9zm48.5 2.4c11.1 3.8 20.3 8.7 31.5 16.4 40.7 28.2 90.7 84.1 160 179.2 10.9 15 195.5 261.2 196.4 262 .3.3 1.7 2.1 3.1 4 1.3 1.9 2.8 3.9 3.2 4.5.5.5 2.8 3.7 5.3 7 2.4 3.3 4.8 6.4 5.3 7 .4.5 2.1 2.8 3.7 5 1.7 2.2 3.4 4.4 3.8 5 .4.5 4.1 5.5 8.2 11s7.8 10.4 8.3 11c1.5 1.8 48.7 64.6 50.2 66.8.8 1.2 6.8 9.2 13.2 17.7 6.4 8.5 13.2 17.5 15 20 1.8 2.5 3.5 4.7 3.8 5 .3.3 2.7 3.4 5.3 7 2.7 3.6 6 8 7.5 9.9 1.5 1.8 3.1 4.1 3.6 5 .5.9 1.2 1.8 1.5 2.1.4.3 3.8 4.8 7.6 10 3.9 5.2 7.8 10.4 8.7 11.4 1 1.1 2.8 3.5 4.1 5.3 1.2 1.8 2.4 3.3 2.7 3.3.3 0 .5-23.5.5-52.3l-.1-52.4-5.4-7.4c-3-4-11-14.8-17.8-23.9-6.7-9.1-12.9-17.4-13.7-18.5-.8-1.1-11.1-15.1-22.9-31-31.8-42.8-44.2-59.5-87.1-117.5-21.4-28.9-39.9-53.9-41.2-55.5-3.1-4-1.1-1.2-26.8-36-59.2-80.1-83.5-111.1-111.9-143-20.4-22.8-42.5-45-63-63-13.9-12.2-33-26.6-48.5-36.4-7.5-4.8-26.9-16.1-27.6-16.1-.2 0-4.1-1.8-8.7-3.9-17-8-37-14.5-55-18-9.8-1.9-14.6-2.5-26.8-3.6l-5.5-.4 9.5 3.3zm636.7 34.2c-.1.1-4.2.4-9.2.8-12.3.9-17.2 1.5-30 3.7-6 1.1-12.3 2.2-14 2.4-1.6.3-4.3.8-6 1.2-1.6.4-3.2.7-3.5.8-.3.1-3.2.7-6.5 1.4-7.3 1.5-36.2 8.7-42.5 10.5-2.5.8-8.8 2.6-14 4.1-16.5 4.7-29 8.5-47 14.1-22.7 7.2-59.9 19.3-62.5 20.4-4.8 2.1-106.3 36-115.5 38.6-8.1 2.3-7 2.9 1.6.9 3.8-.9 8-1.9 9.4-2.1 1.4-.3 5.3-1.1 8.6-1.9 3.4-.8 7.3-1.7 8.5-2 16.4-3.6 93-18.9 100.9-20 1.4-.2 6.1-1 10.5-1.9 4.4-.8 9.6-1.8 11.5-2.1 1.9-.3 4.4-.7 5.5-.9 1.1-.2 3.8-.7 6-1 2.2-.3 5.1-.8 6.5-1.1 1.4-.3 4.1-.7 6-1 1.9-.3 4.4-.6 5.5-.9 2.1-.4 13.3-2.1 19.5-3.1 1.9-.2 4.4-.6 5.5-.9 1.8-.3 6.7-1 15-2.1 1.7-.2 8.6-1.1 15.5-2 17.1-2.3 16.7-2.2 24-2.9 3.6-.4 7.6-.9 9-1.1 1.4-.3 5.9-.7 10-1 4.1-.3 8.6-.8 10-1 12.5-1.9 64.4-2.7 76.5-1.3 5 .6 16.9 2.6 26 4.2 5.1 1 25.1 6.9 26.3 7.8.6.6 1.2.8 1.2.5 0-1.4 25.8 10.9 34 16.2 24.2 15.7 39.8 35.6 43.4 55.5 1.1 6.1 1.7 3.6 1.5-6.4-.4-22.8-4.1-38.9-13.2-58-1.7-3.6-3.5-6.7-3.9-6.8-.4-.2-.8-.8-.8-1.3 0-2.2-9.3-14.1-17.2-22-24.5-24.5-58.7-37.1-103.6-38.2-4.6-.1-8.4-.2-8.5-.1z"/><path d="M911.8 638.7c.7.3 1.6.2 1.9-.1.4-.3-.2-.6-1.3-.5-1.1 0-1.4.3-.6.6zM119 830.3c0 24.2.2 43.8.5 43.6.2-.3.7-2.3 1-4.5 3.4-23.1 18.7-47.4 40-63.5 12-9.1 29.5-16.6 43-18.5 2.2-.4 4.1-.8 4.3-.9.2-.2-19.7-.3-44.2-.2H119v44zm197.1-40.9c-1 1.7-4.4 8-7.6 14.1-3.2 6-6.5 11.8-7.3 12.7-.8 1-1.2 1.8-.9 1.8.3 0-1 2.8-3 6.2-1.9 3.5-5.8 10.6-8.5 15.8-2.8 5.2-5.8 10.8-6.8 12.5-1 1.6-14.5 26.6-30 55.5-15.6 28.9-29.4 54.5-30.8 57-1.3 2.5-4.1 7.6-6.2 11.5-2.1 3.8-8 14.9-13.2 24.5-5.2 9.6-9.8 18.2-10.2 19-.4.8-1.2 2.4-1.9 3.5-1.5 2.4-12.3 22.4-22.7 42-2.3 4.4-5 9.3-6 11-.9 1.6-3.9 7-6.5 12-2.7 4.9-10.5 19.6-17.5 32.5-7 12.9-14.9 27.5-17.5 32.5-2.6 4.9-5.6 10.3-6.5 12-3.3 5.4-7 12.8-7 13.7 0 .4 18.5.7 41.1.6l41.1-.3 4.8-9c2.7-5 6.3-11.7 8-15 1.8-3.3 4.5-8.3 6-11 1.5-2.8 14.9-27.5 29.7-55 14.9-27.5 28.4-52.5 30-55.5 1.6-3 5.2-9.6 7.8-14.5 2.7-5 8.9-16.4 13.8-25.5l14-26c2.7-5.2 5.3-10 5.7-10.5.7-1 4.2-7.6 14.5-27 2.6-5 5.1-9.5 5.5-10 .4-.6 3.5-6.4 7-13s6.6-12.5 7-13c.4-.6 2.8-4.9 5.4-9.8 2.5-4.8 6.7-12.6 9.2-17.5 2.6-4.8 5-9.2 5.4-9.7.4-.6 3-5.3 5.7-10.5 5.8-11 11.8-22 14.6-27 1.1-1.9 4.3-8 7.2-13.5 2.9-5.5 6.5-12 7.9-14.5 1.4-2.5 2.6-4.8 2.6-5.1 0-.3-18.5-.6-41-.6h-41l-1.9 3.1zm175.2-1.8c18.2 4.7 31.8 19.9 36.1 40.4 1.2 6 1.5 300.1.2 309.2-2.5 19.2-19.5 38.3-37 41.8-2.3.4 21.8.8 56.2.9l60.2.1V786.3h-60.2c-50 0-59.5.3-55.5 1.3zm209.9-1.1c.2.2 1.9.5 3.8.8 20.7 3 41.2 13.8 57.1 30 6.7 6.9 15.9 20 19 27.4 1.1 2.6 2.7 6.2 3.5 7.9 1.5 3.4 4 12.9 4.8 18.2.2 1.9.6 3.5.8 3.7.2.2.3-19.5.3-43.8v-44.2l-44.8-.1c-24.6-.1-44.6 0-44.5.1zm451.1 1.5c18.8 5.8 33.5 24.9 34.9 45.3.1 2.8.6 3.7 2 3.7 1 0 1.9-.6 1.9-1.3 1-11.1 5.3-23 10.9-30.1 4.3-5.6 12.2-12.1 18.4-15.1 3.8-1.9 7.3-3.2 7.8-2.9.4.3.8.1.8-.4s-16.8-.9-41.1-.9c-40.4 0-41 0-35.6 1.7zm78.5-1.3c.7.3 1.6.2 1.9-.1.4-.3-.2-.6-1.3-.5-1.1 0-1.4.3-.6.6zm54.6 0c.2.2 1.6.6 3.2.9 10 1.6 24.3 13.2 30.2 24.2 7.1 13.3 6.6.2 6.7 168.7.1 119-.2 153.5-1.1 158.8-3.5 18.4-18.1 34.6-35.4 39.3-3.7 1 6.2 1.3 55.1 1.3 46.9.1 59.8-.2 60.1-1.2.2-.6.3-89.2.3-196.7l-.1-195.5-59.7-.1c-32.9-.1-59.6.1-59.3.3zm217.1.4c8.7 1.5 17.4 4.3 26.4 8.5 30.3 14.2 51.2 41.2 57.5 74.3 1.1 5.7 1.3.2 1.2-38.4l-.1-45-44.5-.1c-24.5 0-42.7.3-40.5.7zm-762 136.1c-1 6.1-6.5 17.4-11.3 23.4-2.2 2.9-6.7 7.2-9.9 9.7-13 10-24.9 13.7-44 13.7-11.6 0-12.3.1-12.3 2 0 1.8.7 2 6.8 2 13.8.1 21.9.9 28.2 3 12.4 4.2 20.3 9.2 28.7 18.5 6.7 7.2 10.8 14.7 13.2 23.8 1.6 6.2 1.6 4.5 1.7-47 0-29.3-.1-53.3-.2-53.3s-.5 1.9-.9 4.2zm795.6 5.5c-4.4 14.5-16 27.3-31.4 34.7-7.8 3.8-11.3 4.9-19.2 6.2-.5.1-6.5.2-13.2.3-11.6.1-12.3.2-12.3 2.1 0 1.9.7 2 9.8 2.1 13.5.1 18.7.7 25.7 3 20.8 6.8 37.2 23.7 42 43.1 1.1 4.6 1.3-1.9 1.4-46.5 0-28.4-.1-51.7-.3-51.7-.2 0-1.3 3-2.5 6.7zM403 1093.9c0 4.9-4.9 20.1-9.2 29-10.5 21.3-28.3 38.5-50.2 48.7-6.5 3-10.5 4.3-18.5 6-1.3.3-4 .9-6 1.3-2.2.6 13.8.9 40.5 1l44.2.1v-44.5c.1-24.5-.1-44.5-.4-44.5-.2 0-.4 1.3-.4 2.9zm406.1-1.3c0 1.1.3 1.4.6.6.3-.7.2-1.6-.1-1.9-.3-.4-.6.2-.5 1.3zm796.9.7c0 4.4-4.3 19.1-7.6 26.6-10.2 22.3-29.4 41.4-52 51.7-6.9 3.1-19 6.7-25.9 7.7-1.6.2 17.1.5 41.8.6l44.7.1v-44.5c0-24.5-.2-44.5-.5-44.5s-.5 1-.5 2.3zm-797.7 2.9c-.4 8.4-8.1 27.7-15.3 38.4-9.9 14.6-24.9 27.8-40.5 35.6-6.1 3.1-15.8 6.3-24.5 8.2-6 1.3-2.9 1.4 37.5 1.5l44.1.1v-42.5c0-23.4-.3-42.5-.6-42.5-.4 0-.7.6-.7 1.2zm115.6 33.1c0 .1-.2 1.1-.3 2.2-1.1 8.8-2.3 13.1-5.6 20.1-6.3 13-16.6 22.3-29.8 26.5-5.7 1.8-5.7 1.8 37.8 1.7 25.5 0 41.8-.4 39.4-.8-10.5-2.1-23.9-12.1-29.9-22.5-4.7-7.9-7.4-16.5-7.9-24.9 0-1.1-.9-2-1.8-2.2-1-.1-1.8-.2-1.9-.1z"/></svg>