<svg class="icon" viewBox="0 0 1024 1024" xmlns="http://www.w3.org/2000/svg" width="200" height="200"><defs><style/></defs><path d="M625.914 24.758c-102.37 8.029-148.093 59.068-164.59 102.372-32.123 84.306 30.4 165.915 108.393 168.61 116.413 4.015 144.518-94.344 130.467-142.517-8.622-29.553-19.503-42.473-26.627-48.059 9.974 6.047 12.955 5.474 25.286 23.973 10.708 16.06 12.043 24.086 12.043 24.086s95.01 15.39 123.115 125.79c36.872 144.854-57.544 243.546-57.544 243.546s8.031-98.359-70.254-140.51c-78.287-42.15-152.55-20.07-218.792 42.151-66.235 62.234-92.336 90.326-140.507 70.254-48.17-20.07-18.066-76.268 12.045-124.447 30.111-48.174 64.234-66.24 64.234-66.24s-24.09-1.001-39.138 4.017c-15.058 5.016-22.088 9.03-22.088 9.03s-20.071-26.095-53.188-47.168c-33.123-21.078-59.217-26.1-59.217-26.1s26.094 2.012 44.161 7.036c18.063 5.01 17.064-89.328 17.064-89.328S131.78 236.975 89.974 420.194c-68.242 299.079 357.29 580.094 357.29 580.094s359.97-231.503 467.027-520.55c89.511-241.667-51.556-473.551-288.377-454.98zM519.533 829.667c-13.048 56.207-71.261 139.505-71.261 139.505s-50.185-84.302-60.215-143.517c-10.04-59.215 30.989-87.318 68.248-87.318 42.155 0 76.272 35.127 63.228 91.33z"/></svg>